<svg width="32" height="32" viewBox="0 0 32 32" fill="none" xmlns="http://www.w3.org/2000/svg">
<path d="M25.0978 14.2043C25.0978 20.3032 20.1853 25.2419 14.1321 25.2419C8.07893 25.2419 3.1665 20.3032 3.1665 14.2043C3.1665 8.1054 8.07893 3.16663 14.1321 3.16663C20.1853 3.16663 25.0978 8.1054 25.0978 14.2043Z" fill="currentColor" fill-opacity="0.5" stroke="currentColor"/>
<path opacity="0.4" d="M27.566 29.2737C27.1207 29.2592 26.6971 29.076 26.3803 28.7606L23.6651 25.5869C23.083 25.0545 23.0354 24.1498 23.5584 23.5585C23.8032 23.3108 24.1361 23.1715 24.4832 23.1715C24.8304 23.1715 25.1633 23.3108 25.4081 23.5585L28.8229 26.2908C29.3148 26.7943 29.4665 27.5417 29.2104 28.1989C28.9542 28.8562 28.338 29.3006 27.6372 29.3333L27.566 29.2737Z" fill="currentColor"/>
</svg>
