<svg width="48" height="48" viewBox="0 0 48 48" fill="none" xmlns="http://www.w3.org/2000/svg">
<g filter="url(#filter0_d_340_196)">
<rect x="10" y="6" width="28" height="28" rx="14" fill="#017AFE"/>
<path d="M24 12C21.9834 12 20.2231 13.3894 19.752 15.2885C18.9731 15.5865 18.3433 16.1827 18.0112 16.9327C15.8262 16.774 14 18.4952 14 20.6154C14 22.6514 15.6821 24.3077 17.75 24.3077V23.0769C16.3706 23.0769 15.25 21.9736 15.25 20.6154C15.25 19.2572 16.3706 18.1538 17.75 18.1538C17.9233 18.1538 18.104 18.1755 18.3018 18.2188L18.9121 18.3558L19.0488 17.7524C19.2002 17.0721 19.7495 16.5264 20.4404 16.3654L20.853 16.2692L20.9141 15.8558C21.1362 14.3582 22.4644 13.2308 24 13.2308C25.1841 13.2308 26.2534 13.8798 26.7881 14.9231L27.0347 15.4038L27.5522 15.226C27.8452 15.1274 28.1138 15.0769 28.375 15.0769C29.7544 15.0769 30.875 16.1803 30.875 17.5385C30.875 17.5625 30.8701 17.5841 30.8652 17.6058C30.8604 17.649 30.8555 17.6923 30.853 17.7332L30.814 18.1755L31.229 18.351C32.1543 18.738 32.75 19.6274 32.75 20.6154C32.75 21.9736 31.6294 23.0769 30.25 23.0769H28.6606C28.8242 23.2548 28.9683 23.4471 29.0928 23.6538C29.2173 23.8606 29.3223 24.0793 29.4053 24.3077H30.25C32.3179 24.3077 34 22.6538 34 20.6154C34 19.2837 33.2749 18.0721 32.1226 17.4159C32.0566 15.4375 30.4014 13.8462 28.375 13.8462C28.1309 13.8462 27.8892 13.8726 27.6426 13.9231C26.8345 12.726 25.4819 12 24 12ZM23.6875 17.5385C22.9771 17.5385 22.3374 17.8774 21.9395 18.399L22.938 19.137C23.1089 18.9135 23.3774 18.7692 23.6875 18.7692C24.2124 18.7692 24.625 19.1755 24.625 19.6923C24.625 20.2091 24.2124 20.6154 23.6875 20.6154H19.625V21.8462H23.6875C24.8887 21.8462 25.875 20.875 25.875 19.6923C25.875 18.5096 24.8887 17.5385 23.6875 17.5385ZM19 23.0769V24.3077H20.875C21.229 24.3077 21.5 24.5745 21.5 24.9231C21.5 25.2716 21.229 25.5385 20.875 25.5385C20.6406 25.5385 20.4429 25.4159 20.3354 25.2308L19.2539 25.8534C19.5811 26.399 20.189 26.7692 20.875 26.7692C21.9028 26.7692 22.75 25.9351 22.75 24.9231C22.75 24.7067 22.7036 24.5024 22.6328 24.3077H25.875C26.5732 24.3077 27.125 24.851 27.125 25.5385C27.125 26.226 26.5732 26.7692 25.875 26.7692C25.3257 26.7692 24.8667 26.4231 24.6958 25.9471L23.5166 26.3558C23.8608 27.3173 24.791 28 25.875 28C27.2495 28 28.375 26.8918 28.375 25.5385C28.375 24.1851 27.2495 23.0769 25.875 23.0769H19Z" fill="#DBDBDB"/>
</g>
<defs>
<filter id="filter0_d_340_196" x="0" y="0" width="48" height="48" filterUnits="userSpaceOnUse" color-interpolation-filters="sRGB">
<feFlood flood-opacity="0" result="BackgroundImageFix"/>
<feColorMatrix in="SourceAlpha" type="matrix" values="0 0 0 0 0 0 0 0 0 0 0 0 0 0 0 0 0 0 127 0" result="hardAlpha"/>
<feOffset dy="4"/>
<feGaussianBlur stdDeviation="5"/>
<feComposite in2="hardAlpha" operator="out"/>
<feColorMatrix type="matrix" values="0 0 0 0 0 0 0 0 0 0 0 0 0 0 0 0 0 0 0.1 0"/>
<feBlend mode="normal" in2="BackgroundImageFix" result="effect1_dropShadow_340_196"/>
<feBlend mode="normal" in="SourceGraphic" in2="effect1_dropShadow_340_196" result="shape"/>
</filter>
</defs>
</svg>
