<svg width="128" height="128" viewBox="0 0 128 128" fill="none" xmlns="http://www.w3.org/2000/svg">
<g id="Iconly/Bulk/Shield Fail">
<g id="Shield Fail">
<path id="Fill 1" opacity="0.4" d="M64.9931 116.267C64.3327 116.267 63.6776 116.115 63.0816 115.806L43.8746 105.865C38.4191 103.04 34.1557 99.8712 30.8319 96.179C23.54 88.1041 19.4913 77.7387 19.4215 66.9862L19.2014 31.5961C19.1745 27.5116 21.8056 23.8455 25.7469 22.4648L61.0143 10.1695C63.1138 9.42167 65.4496 9.41121 67.5759 10.1329L102.978 22.0098C106.94 23.333 109.62 26.9729 109.641 31.0522L109.867 66.4684C109.937 77.2052 106.027 87.6125 98.8537 95.7763C95.5568 99.5208 91.3363 102.737 85.9399 105.614L66.9047 115.78C66.3141 116.099 65.6536 116.261 64.9931 116.267Z" fill="#017AFE"/>
<path id="Fill 4" d="M69.6942 62.5328L76.9378 55.4778C78.5111 53.9454 78.5111 51.4665 76.9378 49.9342C75.3645 48.4018 72.814 48.4018 71.2407 49.9342L63.9971 56.984L56.7589 49.9342C55.1856 48.4018 52.6351 48.4018 51.0618 49.9342C49.4885 51.4665 49.4885 53.9454 51.0618 55.4778L58.3054 62.5328L51.0618 69.5878C49.4885 71.1201 49.4885 73.5991 51.0618 75.1314C51.8511 75.9002 52.8821 76.282 53.913 76.282C54.9386 76.282 55.9696 75.9002 56.7589 75.1314L63.9971 68.0816L71.2407 75.1314C72.03 75.9002 73.0556 76.282 74.0866 76.282C75.1175 76.282 76.1485 75.9002 76.9378 75.1314C78.5111 73.5991 78.5111 71.1201 76.9378 69.5878L69.6942 62.5328Z" fill="#017AFE"/>
</g>
</g>
</svg>
