<svg width="32" height="32" viewBox="0 0 32 32" fill="none" xmlns="http://www.w3.org/2000/svg">
<path opacity="0.4" d="M29.3332 15.9998C29.3332 23.3652 23.3638 29.3332 15.9998 29.3332C8.63584 29.3332 2.6665 23.3652 2.6665 15.9998C2.6665 8.63717 8.63584 2.6665 15.9998 2.6665C23.3638 2.6665 29.3332 8.63717 29.3332 15.9998Z" fill="currentColor"/>
<path d="M20.7646 21.0859C20.5899 21.0859 20.4139 21.0406 20.2526 20.9459L15.0179 17.8232C14.7166 17.6419 14.5312 17.3152 14.5312 16.9632V10.2339C14.5312 9.68189 14.9792 9.23389 15.5312 9.23389C16.0832 9.23389 16.5312 9.68189 16.5312 10.2339V16.3952L21.2779 19.2259C21.7512 19.5099 21.9072 20.1232 21.6246 20.5979C21.4366 20.9112 21.1046 21.0859 20.7646 21.0859Z" fill="currentColor"/>
</svg>
