<svg width="32" height="32" viewBox="0 0 32 32" fill="none" xmlns="http://www.w3.org/2000/svg">
<path opacity="0.4" d="M8.59584 29.3333C5.32784 29.3333 2.6665 26.6263 2.6665 23.3005L2.6665 16.6857C2.6665 13.3668 5.31984 10.6666 8.5825 10.6666H23.4038C26.6732 10.6666 29.3332 13.3736 29.3332 16.7007V23.3128C29.3332 26.6331 26.6798 29.3333 23.4172 29.3333H22.1638H8.59584Z" fill="currentColor"/>
<path d="M15.2731 2.96137L11.3944 6.75576C10.9944 7.14792 10.9944 7.77902 11.3971 8.16989C11.7997 8.55946 12.4491 8.55816 12.8491 8.16729L14.9731 6.0883V8.08159V19.2687C14.9731 19.8206 15.4331 20.2686 15.9997 20.2686C16.5677 20.2686 17.0264 19.8206 17.0264 19.2687V6.0883L19.1504 8.16729C19.5504 8.55816 20.1997 8.55946 20.6024 8.16989C20.8037 7.97381 20.9051 7.71799 20.9051 7.46088C20.9051 7.20636 20.8037 6.95054 20.6051 6.75576L16.7277 2.96137C16.5344 2.77308 16.2731 2.6666 15.9997 2.6666C15.7277 2.6666 15.4664 2.77308 15.2731 2.96137Z" fill="currentColor"/>
</svg>
