
<svg width="32" height="32" viewBox="0 0 32 32" fill="none" xmlns="http://www.w3.org/2000/svg">
<path opacity="0.4" d="M23.405 9.72827C26.673 9.72827 29.333 12.4747 29.333 15.8502L29.333 22.5599C29.333 25.9272 26.6797 28.6667 23.4183 28.6667L8.59701 28.6667C5.32768 28.6667 2.66634 25.9217 2.66634 22.5462L2.66634 15.8364C2.66634 12.4692 5.32101 9.72827 8.58368 9.72827H9.83701L23.405 9.72827Z" fill="currentColor"/>
<path d="M16.7279 21.3832L20.6066 17.426C21.0066 17.017 21.0066 16.3589 20.6039 15.9512C20.2012 15.5449 19.5519 15.5463 19.1519 15.9539L17.0279 18.1208L17.0279 4.37617C17.0279 3.8006 16.5679 3.33337 15.9999 3.33337C15.4332 3.33337 14.9746 3.8006 14.9746 4.37617L14.9746 18.1208L12.8492 15.9539C12.4492 15.5463 11.7999 15.5449 11.3973 15.9512C11.1959 16.1557 11.0946 16.4225 11.0946 16.6906C11.0946 16.9561 11.1959 17.2229 11.3946 17.426L15.2732 21.3832C15.4666 21.5796 15.7279 21.6907 15.9999 21.6907C16.2732 21.6907 16.5346 21.5796 16.7279 21.3832Z" fill="currentColor"/>
</svg>
