<svg width="32" height="32" viewBox="0 0 32 32" fill="none" xmlns="http://www.w3.org/2000/svg">
<path opacity="0.4" d="M21.7865 2.66638H10.2265C5.7065 2.66638 2.6665 5.83972 2.6665 10.5597V21.453C2.6665 26.1597 5.7065 29.333 10.2265 29.333H21.7865C26.3065 29.333 29.3332 26.1597 29.3332 21.453V10.5597C29.3332 5.83972 26.3065 2.66638 21.7865 2.66638Z" fill="currentColor"/>
<path fill-rule="evenodd" clip-rule="evenodd" d="M14.8328 10.9191C14.8328 11.5618 15.3542 12.0858 15.9928 12.0858C16.6502 12.0858 17.1728 11.5618 17.1728 10.9191C17.1728 10.2764 16.6502 9.75244 16.0062 9.75244C15.3595 9.75244 14.8328 10.2764 14.8328 10.9191ZM17.1595 15.1495C17.1595 14.5068 16.6355 13.9828 15.9928 13.9828C15.3502 13.9828 14.8262 14.5068 14.8262 15.1495V21.0428C14.8262 21.6855 15.3502 22.2095 15.9928 22.2095C16.6355 22.2095 17.1595 21.6855 17.1595 21.0428V15.1495Z" fill="currentColor"/>
</svg>
